<?xml version="1.0" encoding="UTF-8"?>
<svg xmlns="http://www.w3.org/2000/svg" viewBox="0 0 512 512" width="512" height="512">
<path d="M44.44 0.08C185.48 0.08 326.52 0.08 467.56 0.08C467.95 0.31 468.35 0.55 468.75 0.79C490.03 2.86 508.54 22.38 511.24 43.25C511.47 43.65 511.7 44.04 511.92 44.44C511.92 185.48 511.92 326.52 511.92 467.56C511.69 467.96 511.45 468.35 511.21 468.75C509.11 490.03 489.64 508.54 468.75 511.24C468.35 511.47 467.96 511.7 467.56 511.92C326.52 511.92 185.48 511.92 44.44 511.92C44.04 511.69 43.65 511.45 43.25 511.21C21.97 509.14 3.46 489.62 0.76 468.75C0.53 468.35 0.3 467.96 0.08 467.56C0.08 326.52 0.08 185.48 0.08 44.44C0.31 44.05 0.55 43.65 0.79 43.25C2.86 21.97 22.38 3.46 43.25 0.76C43.65 0.53 44.04 0.3 44.44 0.08ZM246.65 88.31C232.85 84.7 219.07 79.78 205.03 77.16C159.77 68.7 104.01 69.48 71.6 107.38C62.41 118.12 55.67 131.95 54.14 146.12C47.65 205.86 94.52 238.4 143.96 257.89C168.61 267.6 204.39 283.21 214.81 309.57C217.61 316.66 218.48 325.38 217.66 332.95C216.8 340.9 215.33 348.75 211.7 355.94C196.91 385.27 156.63 387.11 128.33 382.15C115.7 379.93 99.19 375.66 90.14 365.88C87.31 346.82 84.48 327.76 81.66 308.69C72.55 308.69 63.44 308.69 54.33 308.69C53.12 335.08 51.91 361.47 50.7 387.86C55 389.32 59.62 389.86 63.97 391.18C81.28 396.42 98.12 403.12 116.21 405.77C166.77 413.18 228.02 404.72 255.51 356.27C260.93 346.72 263.92 336 265.77 325.23C277.43 257.34 199.78 229.82 152.19 206.19C133.25 196.78 110.72 186.45 102.21 165.49C99.8 159.55 99.04 152.96 98.92 146.59C98.13 103.14 136.8 91.77 173.71 96.77C184.67 98.25 200.53 99.92 208.77 108.23C211.74 126.2 214.7 144.17 217.66 162.15C226.54 162.15 235.43 162.15 244.31 162.15C245.09 137.53 245.87 112.92 246.65 88.31ZM462.18 422.83C387.54 422.83 312.9 422.83 238.26 422.83C238.26 428.61 238.26 434.39 238.26 440.17C312.9 440.17 387.54 440.17 462.18 440.17C462.18 434.39 462.18 428.61 462.18 422.83Z" fill="#080d15" fill-rule="evenodd" stroke="#080d15" stroke-width="0.25" stroke-linejoin="round"/>
<path d="M246.65 88.31C245.87 112.92 245.09 137.53 244.31 162.15C235.43 162.15 226.54 162.15 217.66 162.15C214.7 144.17 211.74 126.2 208.77 108.23C200.53 99.92 184.67 98.25 173.71 96.77C136.8 91.77 98.13 103.14 98.92 146.59C99.04 152.96 99.8 159.55 102.21 165.49C110.72 186.45 133.25 196.78 152.19 206.19C199.78 229.82 277.43 257.34 265.77 325.23C263.92 336 260.93 346.72 255.51 356.27C228.02 404.72 166.77 413.18 116.21 405.77C98.12 403.12 81.28 396.42 63.97 391.18C59.62 389.86 55 389.32 50.7 387.86C51.91 361.47 53.12 335.08 54.33 308.69C63.44 308.69 72.55 308.69 81.66 308.69C84.48 327.76 87.31 346.82 90.14 365.88C99.19 375.66 115.7 379.93 128.33 382.15C156.63 387.11 196.91 385.27 211.7 355.94C215.33 348.75 216.8 340.9 217.66 332.95C218.48 325.38 217.61 316.66 214.81 309.57C204.39 283.21 168.61 267.6 143.96 257.89C94.52 238.4 47.65 205.86 54.14 146.12C55.67 131.95 62.41 118.12 71.6 107.38C104.01 69.48 159.77 68.7 205.03 77.16C219.07 79.78 232.85 84.7 246.65 88.31ZM462.18 422.83C462.18 428.61 462.18 434.39 462.18 440.17C387.54 440.17 312.9 440.17 238.26 440.17C238.26 434.39 238.26 428.61 238.26 422.83C312.9 422.83 387.54 422.83 462.18 422.83Z" fill="#78a9ff" fill-rule="evenodd" stroke="#78a9ff" stroke-width="0.25" stroke-linejoin="round"/>
</svg>
